# xmcd
#
# Track frame offsets:
#	150
#	14547
#	43997
#	63172
#	89937
#	112785
#	124035
#	155132
#	169367
#	183770
#	201110
#	219960
#	237247
#	251812
#	277887
#	294905
#	314247
#	322177
#
# Disc length: 4592 seconds
#
# Revision: 1
# Processed by: cddbd v1.4PL0 Copyright (c) Steve Scherf et al.
# Submitted via: EasyCDDAExtractor 5.0.6
#
DISCID=1311ee12
DTITLE=Various Artist - Louisiana Roux
DYEAR=2003
DGENRE=
TTITLE0=Rosie Ledet - Hello Baby
TTITLE1=Kermit Ruffins - Big Easy
TTITLE2=Raful Neal - Chance My Way of Living
TTITLE3=Bobby Charles - The Legend of Jolie Blonde
TTITLE4=The Pinstripe Brass Band - Lord Lord Lord
TTITLE5=The Hackberry Ramblers - Poor Hobo
TTITLE6=Harold Battiste presents Next Generation - Me and Willie Tee
TTITLE7=Beau Jocque - The Beau Jocque Two-Step
TTITLE8=The Benjy David Project - Louisiana Saturday Night
TTITLE9=Hoyt Garrick - New Orleans Ladies
TTITLE10=Timothea - Pretty Is As Pretty Does
TTITLE11=G.G. Shinn - Certain Kind of Something
TTITLE12=Feufollet - Petite ou la grosse
TTITLE13=Joe Krown Organ Combo - Funk Yard
TTITLE14=Benny Grunch - I'll Just Stay Awake
TTITLE15=John Autin - My Name Is John
TTITLE16=Moise and Alida Viator - Tee Vas Pas Me Courtiser!
TTITLE17=Dukes of Dixieland - Over in Gloryland
EXTD=A Sampler from Louisiana's Record Lables
EXTT0=2001 Maison de Soul Records - www.flattownmusic.com\n(Rosie Ledet - Flat
EXTT0=Town Music BMI)
EXTT1=2002 Basin Street Records - www.basinstreetrecords.com\n(Kermit Ruffins 
EXTT1=/ Kermit Ruffins Music BMI)
EXTT2=1998 Club Louisianne Recordings - www.louisianasmusic.com\n(Raful Neal /
EXTT2=Rhythm Nation Music Co. - Raful Music Co. BMI)
EXTT3=2003 Rice n Gravy Records - realrecords@hotmail.com\n(Bobby Charles - Mu
EXTT3=sic Patch BMI)
EXTT4=1994 Orleans Records - www.orleansrecords.com\n(Traditional)
EXTT5=1997 The Hot Biscuits Recording Co. - www.hackberryramblers.com\n(James 
EXTT5=Glen Croker, Ludering Darbone, and Ben Sandmel - Publisher- Opera Music BM
EXTT5=I)
EXTT6=1996 AFO Records - unoafoharl@cox.net\n(Harold Battiste - At Last Music 
EXTT6=BMI)
EXTT7=2001 Mardi Gras Records - www.mardigrasrecords.com\n(Andrus Espre - Jon 
EXTT7=Music BMI)
EXTT8=2002 Real Records - www.benjydavisproject.com\n(Benjy Davis - Song for R
EXTT8=eal BMI)
EXTT9=1976 Break of Dawn Music - realrecords@hotmail.com\n(Hout Garrick and Leon
EXTT9=Medica - Break of Dawn Music BMI)
EXTT10=1997 Blue Soul Records - www.timothea.com\n(Timothea Beckerman - Timoth
EXTT10=ea's Escapades BMI and Blue Soul Music - Tanet BMI)
EXTT11=2000 Sound of New Orleans Records - www.bluesworkd.com/SONO\n(G.G. Shin
EXTT11=n - Bedico Music BMI)
EXTT12=2001 Louisiana Red Hot Records - www.laredhot.com\n(traditional)
EXTT13=2002 STR Digital - www.STRdigital.com\n(Joe Krown - JRK Music BMI - Con
EXTT13=temporary New Orleans Music BMI)
EXTT14=1992 Menjie Records - www.bennygrunch.com\n(Benny Antin - Anzel-Anzel B
EXTT14=MI)
EXTT15=2002 Radbadash Records - www.radadash.com\n(John Autin - Radadash Music
EXTT15=ASCAP)
EXTT16=1999 Acadiana Records - www.deescajungifts.com\n(Alida Viator - Fred Ch
EXTT16=arlie Music BMI)
EXTT17=1990 Leisure Jazz - www.dukesofdixieland.com\n(Kevin Clark - traditiona
EXTT17=l - Gudi Music BMI)
PLAYORDER=
